<?xml version="1.0" standalone="no"?>
<!DOCTYPE svg PUBLIC "-//W3C//DTD SVG 20010904//EN"
 "http://www.w3.org/TR/2001/REC-SVG-20010904/DTD/svg10.dtd">
<svg version="1.0" xmlns="http://www.w3.org/2000/svg"
 width="300.000000pt" height="300.000000pt" viewBox="0 0 300.000000 300.000000"
 preserveAspectRatio="xMidYMid meet">
<metadata>
Created by potrace 1.13, written by Peter Selinger 2001-2015
</metadata>
<g transform="translate(0.000000,300.000000) scale(0.100000,-0.100000)"
fill="#000000" stroke="none">
<path d="M1285 2780 l-220 -220 -312 0 -313 0 0 -312 0 -313 -217 -217 -218
-218 217 -217 218 -218 2 -310 3 -310 310 -3 310 -2 218 -218 217 -217 218
218 217 217 313 0 312 0 0 312 0 313 220 220 220 220 -220 220 -220 220 0 307
0 308 -307 0 -308 0 -220 220 -220 220 -220 -220z m935 -717 l0 -58 -353 -230
c-193 -126 -417 -272 -497 -324 -80 -51 -183 -119 -230 -150 l-85 -56 105 -3
c58 -2 266 -2 462 0 317 3 359 5 374 20 9 9 29 60 44 115 l27 98 103 3 c57 1
107 -1 111 -5 4 -4 1 -30 -6 -58 -7 -27 -23 -107 -36 -177 l-23 -128 -748 0
-748 0 0 59 c0 39 5 64 14 73 8 7 265 175 570 373 l557 360 -373 3 c-240 2
-386 -1 -409 -8 -38 -11 -52 -31 -64 -100 -4 -19 -11 -52 -16 -72 l-10 -38
-109 0 c-90 0 -110 3 -110 15 0 15 57 296 66 328 5 16 47 17 695 17 l689 0 0
-57z"/>
</g>
</svg>
